<svg xmlns="http://www.w3.org/2000/svg" viewBox="0 0 214.59 43.05"><defs><style>.cls-1{font-size:27px;fill:#1c1417;font-family:NeueHaasUnicaW1G-Bold, Neue Haas Unica W1G;font-weight:700;letter-spacing:-0.01em;}.cls-2{letter-spacing:-0.04em;}.cls-3{letter-spacing:-0.04em;}.cls-4{letter-spacing:0em;}.cls-5{letter-spacing:-0.04em;}.cls-6{letter-spacing:-0.01em;}.cls-7{letter-spacing:-0.04em;}.cls-8{letter-spacing:0.03em;}.cls-9{letter-spacing:0.01em;}.cls-10{letter-spacing:-0.01em;}.cls-11{fill:#703dea;}</style></defs><title>fantastic-css-logo</title><g id="Warstwa_2" data-name="Warstwa 2"><g id="Warstwa_1-2" data-name="Warstwa 1"><text class="cls-1" transform="translate(56.51 33.15)">f<tspan class="cls-2" x="9.04" y="0">a</tspan><tspan class="cls-3" x="22.68" y="0">n</tspan><tspan class="cls-4" x="37.91" y="0">t</tspan><tspan class="cls-5" x="47.46" y="0">a</tspan><tspan class="cls-6" x="61.26" y="0">st</tspan><tspan class="cls-7" x="84.4" y="0">i</tspan><tspan class="cls-8" x="90.8" y="0">c</tspan><tspan class="cls-9" x="106.73" y="0">-</tspan><tspan class="cls-10" x="115.58" y="0">css</tspan></text><path class="cls-11" d="M10.29,28.65a1,1,0,0,0,.25,0,1.18,1.18,0,0,0,.79-.53,1.21,1.21,0,0,0,.19-.94,10.66,10.66,0,0,1-.2-2,10.32,10.32,0,0,1,5.82-9.23,1.21,1.21,0,0,0,.64-.71,1.28,1.28,0,0,0-.05-1,1.26,1.26,0,0,0-.72-.64,1.21,1.21,0,0,0-1,.06A12.83,12.83,0,0,0,8.82,25.12a12.59,12.59,0,0,0,.25,2.52A1.26,1.26,0,0,0,10.29,28.65Z"/><path class="cls-11" d="M25.41,14.22A1.26,1.26,0,0,0,26,15.89a10.32,10.32,0,0,1,5.82,9.23,9.91,9.91,0,0,1-.2,2,1.24,1.24,0,0,0,1,1.47,1,1,0,0,0,.25,0,1.25,1.25,0,0,0,1.22-1,12.59,12.59,0,0,0,.25-2.52,12.83,12.83,0,0,0-7.24-11.48A1.25,1.25,0,0,0,25.41,14.22Z"/><path class="cls-11" d="M26.28,34.22a10.24,10.24,0,0,1-9.42,0,1.25,1.25,0,0,0-.95-.08,1.23,1.23,0,0,0-.73.61,1.26,1.26,0,0,0,.53,1.69,12.64,12.64,0,0,0,11.72,0,1.25,1.25,0,1,0-1.15-2.22Z"/><path class="cls-11" d="M38,32.72a5.09,5.09,0,0,0-3.16,1.11l-8.57-6.72A5.11,5.11,0,0,0,26.74,25a5.2,5.2,0,0,0-3.92-5V10.18a5.16,5.16,0,1,0-2.5,0V20a5.19,5.19,0,0,0-3.91,5,5,5,0,0,0,.49,2.15L8.32,33.83a5.08,5.08,0,0,0-3.15-1.11,5.17,5.17,0,1,0,5.16,5.17,5.24,5.24,0,0,0-.46-2.1l8.59-6.73a5.05,5.05,0,0,0,6.22,0l8.59,6.73a5.24,5.24,0,0,0-.46,2.1A5.17,5.17,0,1,0,38,32.72Zm0,7.83a2.65,2.65,0,0,1-2.12-4.27l.06-.06A2.66,2.66,0,1,1,38,40.55ZM21.57,27.63A2.67,2.67,0,1,1,24.24,25,2.67,2.67,0,0,1,21.57,27.63Zm0-25.13a2.67,2.67,0,1,1-2.66,2.67A2.68,2.68,0,0,1,21.57,2.5ZM5.17,40.55a2.67,2.67,0,1,1,2.66-2.66A2.67,2.67,0,0,1,5.17,40.55Z"/></g></g></svg>