<svg xmlns="http://www.w3.org/2000/svg" viewBox="0 0 191.04 54.49"><defs><style>.cls-1{fill:#703dea;}.cls-2{fill:#1c1417;}.cls-3{fill:#606060;}</style></defs><title>splashLogo</title><g id="Warstwa_2" data-name="Warstwa 2"><g id="Warstwa_1-2" data-name="Warstwa 1"><path class="cls-1" d="M21.42,27,16,19.45a11,11,0,0,0-3,1,8.92,8.92,0,0,1-3.37.93L5.68,27a.1.1,0,0,0,.07.15h15.6A.09.09,0,0,0,21.42,27ZM10.17,26a1.13,1.13,0,1,1,1.13-1.13A1.13,1.13,0,0,1,10.17,26Zm5.65-1.13A1.13,1.13,0,1,1,17,23.73,1.13,1.13,0,0,1,15.82,24.86Z"/><path class="cls-1" d="M26.48,26.27h0L17,13V2.26h1.13a1.13,1.13,0,0,0,0-2.26H9A1.13,1.13,0,1,0,9,2.26h1.13V13L.64,26.27a3.39,3.39,0,0,0,2.73,5.37H23.74a3.39,3.39,0,0,0,2.74-5.37Zm-1.75,2.5a1.11,1.11,0,0,1-1,.61H3.37a1.09,1.09,0,0,1-1-.61,1.14,1.14,0,0,1,.08-1.19L12.22,14a1.18,1.18,0,0,0,.21-.66V2.26h2.26V13.32a1.1,1.1,0,0,0,.21.66l9.74,13.6A1.14,1.14,0,0,1,24.73,28.77Z"/><path class="cls-2" d="M35.66,12.07h2V10.88a4.58,4.58,0,0,1,1.09-3.3,4.72,4.72,0,0,1,3.55-1.15c.34,0,.69,0,1,.05a7.26,7.26,0,0,1,1,.17V8.83l-.73-.08c-.23,0-.47,0-.7,0a2,2,0,0,0-1.44.42A1.83,1.83,0,0,0,41,10.53v1.54h3.32v2.21H41V25.54H37.68V14.28h-2Z"/><path class="cls-2" d="M46.12,18.71c1.05-.86,3.12-1.36,6.19-1.48l1.11-.06v-.48a3,3,0,0,0-.6-2A2.29,2.29,0,0,0,51,14a2.32,2.32,0,0,0-1.62.55,4.2,4.2,0,0,0-1,1.55l-3-.54a5.62,5.62,0,0,1,1.93-2.78A5.83,5.83,0,0,1,51,11.67a5.74,5.74,0,0,1,4.35,1.48,6.13,6.13,0,0,1,1.4,4.35v8H53.5V23.35a4.45,4.45,0,0,1-1.8,1.89,5.1,5.1,0,0,1-2.6.65,5,5,0,0,1-3.24-1.08,3.6,3.6,0,0,1-1.32-2.94A3.93,3.93,0,0,1,46.12,18.71Zm6.41.33c-1.87.09-3.12.39-3.73.9a2.28,2.28,0,0,0-.91,1.8,1.8,1.8,0,0,0,.64,1.47,2.5,2.5,0,0,0,1.62.52,3.14,3.14,0,0,0,2.36-.93,3.27,3.27,0,0,0,.91-2.39V19Z"/><path class="cls-2" d="M62.6,14.66a5,5,0,0,1,1.82-2.25A4.68,4.68,0,0,1,67,11.67a4.07,4.07,0,0,1,3.41,1.39,5.32,5.32,0,0,1,1.09,3.41v9.07H68.19V17.09a3.52,3.52,0,0,0-.56-2.17,2.1,2.1,0,0,0-1.79-.72,2.86,2.86,0,0,0-2.36,1.1,4.46,4.46,0,0,0-.88,2.9v7.34H59.28V12.07H62.6Z"/><path class="cls-2" d="M72.89,14.28V12.07h2V8.18h3.32v3.89h3.89v2.21H78.26v7.24a1.94,1.94,0,0,0,.38,1.36,1.61,1.61,0,0,0,1.21.39,9.68,9.68,0,0,0,1.05-.05c.38,0,.77-.08,1.17-.14v2.35c-.49.09-1,.16-1.5.22s-1,.08-1.47.08a4.34,4.34,0,0,1-3.22-1,4.54,4.54,0,0,1-.94-3.22V14.28Z"/><path class="cls-2" d="M85,18.71c1-.86,3.12-1.36,6.19-1.48l1.11-.06v-.48a3,3,0,0,0-.59-2A2.33,2.33,0,0,0,89.84,14a2.36,2.36,0,0,0-1.62.55,4.19,4.19,0,0,0-1,1.55l-3-.54a5.49,5.49,0,0,1,1.93-2.78,6.93,6.93,0,0,1,8,.38,6.13,6.13,0,0,1,1.4,4.35v8H92.35V23.35a4.48,4.48,0,0,1-1.79,1.89,5.16,5.16,0,0,1-2.61.65,5,5,0,0,1-3.24-1.08,3.6,3.6,0,0,1-1.32-2.94A4,4,0,0,1,85,18.71Zm6.41.33q-2.8.13-3.72.9a2.26,2.26,0,0,0-.92,1.8,1.78,1.78,0,0,0,.65,1.47,2.48,2.48,0,0,0,1.62.52,3.16,3.16,0,0,0,2.36-.93,3.3,3.3,0,0,0,.9-2.39V19Z"/><path class="cls-2" d="M101.14,23.07a3.79,3.79,0,0,0,2.34.72,3.57,3.57,0,0,0,2-.5,1.49,1.49,0,0,0,.71-1.23,1.33,1.33,0,0,0-.51-1.07,4.45,4.45,0,0,0-1.86-.69L102,19.93a5.75,5.75,0,0,1-3.09-1.49,3.81,3.81,0,0,1,.5-5.57,6.21,6.21,0,0,1,4-1.2,6.47,6.47,0,0,1,3.43.81,8.34,8.34,0,0,1,2.4,2.32l-2.13,1.32a6,6,0,0,0-1.67-1.77,3.54,3.54,0,0,0-1.92-.52,3.05,3.05,0,0,0-1.79.45,1.36,1.36,0,0,0-.64,1.14,1.42,1.42,0,0,0,.42,1,3.22,3.22,0,0,0,1.58.66l1.86.38a6.92,6.92,0,0,1,3.51,1.56,3.71,3.71,0,0,1-.59,5.67A7.17,7.17,0,0,1,103.53,26a7.34,7.34,0,0,1-3.94-1,6.45,6.45,0,0,1-2.43-2.69l2.21-1.37A6.78,6.78,0,0,0,101.14,23.07Z"/><path class="cls-2" d="M110.23,14.28V12.07h2V8.18h3.32v3.89h3.89v2.21H115.6v7.24a1.94,1.94,0,0,0,.38,1.36,1.63,1.63,0,0,0,1.21.39,10,10,0,0,0,1.06-.05c.37,0,.76-.08,1.16-.14v2.35c-.49.09-1,.16-1.5.22s-1,.08-1.47.08a4.31,4.31,0,0,1-3.21-1,4.54,4.54,0,0,1-1-3.22V14.28Z"/><path class="cls-2" d="M124.94,10.15h-3.32V7h3.32Zm0,15.39h-3.32V12.07h3.32Z"/><path class="cls-2" d="M129.06,13.62a6.4,6.4,0,0,1,4.87-1.95A6.09,6.09,0,0,1,138,13a5.66,5.66,0,0,1,2,3.47l-3,.46a4.58,4.58,0,0,0-1.08-2.28,2.59,2.59,0,0,0-1.89-.72,2.85,2.85,0,0,0-2.46,1.24,6,6,0,0,0-.89,3.54V19a6.06,6.06,0,0,0,.89,3.53A2.85,2.85,0,0,0,134,23.73a2.71,2.71,0,0,0,1.9-.71,4.9,4.9,0,0,0,1.17-2.5l3,.46a5.89,5.89,0,0,1-2,3.7A6.34,6.34,0,0,1,133.93,26a6.54,6.54,0,0,1-4.8-1.91,6.91,6.91,0,0,1-1.92-5.14v-.19A7.13,7.13,0,0,1,129.06,13.62Z"/><path class="cls-2" d="M149.86,17.42h-8.15v-3h8.15Z"/><path class="cls-2" d="M153.52,13.62a6.4,6.4,0,0,1,4.87-1.95,6.14,6.14,0,0,1,4,1.28,5.64,5.64,0,0,1,2,3.47l-3,.46a4.58,4.58,0,0,0-1.08-2.28,2.59,2.59,0,0,0-1.89-.72A2.86,2.86,0,0,0,156,15.12a6,6,0,0,0-.89,3.54V19a6.06,6.06,0,0,0,.89,3.53,2.87,2.87,0,0,0,2.46,1.25,2.71,2.71,0,0,0,1.9-.71,4.89,4.89,0,0,0,1.18-2.5l3,.46a5.79,5.79,0,0,1-2,3.7A6.34,6.34,0,0,1,158.39,26a6.54,6.54,0,0,1-4.8-1.91,6.91,6.91,0,0,1-1.92-5.14v-.19A7.13,7.13,0,0,1,153.52,13.62Z"/><path class="cls-2" d="M169.4,23.07a3.78,3.78,0,0,0,2.33.72,3.57,3.57,0,0,0,2-.5,1.48,1.48,0,0,0,.72-1.23A1.31,1.31,0,0,0,174,21a4.45,4.45,0,0,0-1.86-.69l-1.86-.37a5.67,5.67,0,0,1-3.09-1.49,3.63,3.63,0,0,1-1-2.59,3.69,3.69,0,0,1,1.49-3,6.21,6.21,0,0,1,4-1.2,6.5,6.5,0,0,1,3.43.81,8.34,8.34,0,0,1,2.4,2.32l-2.13,1.32a6,6,0,0,0-1.68-1.77,3.49,3.49,0,0,0-1.91-.52,3.07,3.07,0,0,0-1.8.45,1.38,1.38,0,0,0-.63,1.14,1.42,1.42,0,0,0,.42,1,3.13,3.13,0,0,0,1.57.66l1.87.38a7,7,0,0,1,3.51,1.56,3.71,3.71,0,0,1-.6,5.67A7.13,7.13,0,0,1,171.79,26a7.31,7.31,0,0,1-3.94-1,6.32,6.32,0,0,1-2.43-2.69l2.21-1.37A6.78,6.78,0,0,0,169.4,23.07Z"/><path class="cls-2" d="M182.65,23.07a3.79,3.79,0,0,0,2.34.72,3.57,3.57,0,0,0,2-.5,1.49,1.49,0,0,0,.71-1.23,1.33,1.33,0,0,0-.51-1.07,4.45,4.45,0,0,0-1.86-.69l-1.87-.37a5.75,5.75,0,0,1-3.09-1.49,3.81,3.81,0,0,1,.5-5.57,6.22,6.22,0,0,1,4-1.2,6.46,6.46,0,0,1,3.42.81,8.36,8.36,0,0,1,2.41,2.32l-2.14,1.32A5.86,5.86,0,0,0,187,14.35a3.54,3.54,0,0,0-1.92-.52,3.05,3.05,0,0,0-1.79.45,1.39,1.39,0,0,0-.64,1.14,1.42,1.42,0,0,0,.42,1,3.22,3.22,0,0,0,1.58.66l1.86.38A6.92,6.92,0,0,1,190,19.06a3.7,3.7,0,0,1-.59,5.67A7.17,7.17,0,0,1,185,26a7.34,7.34,0,0,1-3.94-1,6.45,6.45,0,0,1-2.43-2.69l2.22-1.37A6.89,6.89,0,0,0,182.65,23.07Z"/><path class="cls-3" d="M10.05,47.34v4.51a2,2,0,0,0,.48,1.49,1.8,1.8,0,0,0,1.28.45,1.81,1.81,0,0,0,1.29-.45,2,2,0,0,0,.48-1.49V47.34h.81v4.44a2.71,2.71,0,0,1-.7,2,2.55,2.55,0,0,1-1.89.69,2.55,2.55,0,0,1-1.88-.69,2.71,2.71,0,0,1-.7-2V47.34Z"/><path class="cls-3" d="M16.54,50.44a2.11,2.11,0,0,1,.73-.87,1.78,1.78,0,0,1,1-.3,1.55,1.55,0,0,1,1.28.52A2,2,0,0,1,20,51v3.3h-.79V51.22a1.61,1.61,0,0,0-.25-1,1,1,0,0,0-.82-.33,1.39,1.39,0,0,0-1.14.53,2.24,2.24,0,0,0-.42,1.4v2.51h-.78V49.42h.78Z"/><path class="cls-3" d="M22,48.55h-.78v-1H22Zm0,5.79h-.78V49.42H22Z"/><path class="cls-3" d="M25.14,53.63l1.44-4.21h.77l-1.73,4.92h-1l-1.72-4.92h.82Z"/><path class="cls-3" d="M28.4,50a2.1,2.1,0,0,1,1.71-.73,2,2,0,0,1,1.64.68,2.9,2.9,0,0,1,.56,1.89V52H28.58a2.23,2.23,0,0,0,.45,1.4,1.43,1.43,0,0,0,1.15.51,1.29,1.29,0,0,0,.75-.24,2,2,0,0,0,.65-.8l.68.27a2,2,0,0,1-.9,1,2.41,2.41,0,0,1-1.19.33,2.25,2.25,0,0,1-1.75-.71,2.7,2.7,0,0,1-.64-1.88v0A2.75,2.75,0,0,1,28.4,50Zm2.69.26a1.24,1.24,0,0,0-1-.39,1.33,1.33,0,0,0-1,.42,2.11,2.11,0,0,0-.5,1.12h2.88A1.92,1.92,0,0,0,31.09,50.26Z"/><path class="cls-3" d="M34.18,50.6a2,2,0,0,1,.69-.93,1.75,1.75,0,0,1,1-.31H36l.08,0v.73h-.28a1.55,1.55,0,0,0-1.17.46,1.93,1.93,0,0,0-.46,1.4v2.39H33.4V49.42h.78Z"/><path class="cls-3" d="M37.63,53.59a1.48,1.48,0,0,0,.95.3,1.72,1.72,0,0,0,1-.23.65.65,0,0,0,.32-.56.61.61,0,0,0-.22-.48,1.87,1.87,0,0,0-.79-.32l-.65-.14a2.17,2.17,0,0,1-1.15-.54,1.3,1.3,0,0,1,.16-1.92,2,2,0,0,1,1.37-.43,2.07,2.07,0,0,1,1.28.38,1.82,1.82,0,0,1,.69,1l-.69.18a1.26,1.26,0,0,0-.47-.71,1.36,1.36,0,0,0-.81-.25,1.42,1.42,0,0,0-.82.21.66.66,0,0,0-.3.54.7.7,0,0,0,.19.49,1.31,1.31,0,0,0,.69.31l.65.14a2.79,2.79,0,0,1,1.27.55,1.19,1.19,0,0,1,.39.92,1.27,1.27,0,0,1-.56,1,2.47,2.47,0,0,1-1.54.43,2.37,2.37,0,0,1-1.41-.41,1.84,1.84,0,0,1-.73-1.15l.69-.18A1.51,1.51,0,0,0,37.63,53.59Z"/><path class="cls-3" d="M42,51.87a4,4,0,0,1,2.19-.55l.61,0v-.17a1.41,1.41,0,0,0-.27-.94,1,1,0,0,0-.84-.31,1.21,1.21,0,0,0-.74.24,1.46,1.46,0,0,0-.49.69l-.7-.21a2,2,0,0,1,.68-.94,2,2,0,0,1,1.25-.38,1.76,1.76,0,0,1,1.43.55,2.28,2.28,0,0,1,.47,1.57v3h-.77v-.86a1.9,1.9,0,0,1-.71.75,2,2,0,0,1-1,.26,1.87,1.87,0,0,1-1.2-.4,1.27,1.27,0,0,1-.5-1.07A1.44,1.44,0,0,1,42,51.87Zm2.21,0a2.86,2.86,0,0,0-1.6.38,1,1,0,0,0-.41.79.77.77,0,0,0,.3.64,1.22,1.22,0,0,0,.75.23,1.53,1.53,0,0,0,1.12-.43,1.43,1.43,0,0,0,.43-1.05v-.58Z"/><path class="cls-3" d="M47.59,54.34h-.78v-7h.78Z"/><path class="cls-3" d="M51.3,51.87a4,4,0,0,1,2.19-.55l.61,0v-.17a1.41,1.41,0,0,0-.27-.94,1,1,0,0,0-.84-.31,1.21,1.21,0,0,0-.74.24,1.38,1.38,0,0,0-.48.69l-.7-.21a2,2,0,0,1,.67-.94A2,2,0,0,1,53,49.27a1.76,1.76,0,0,1,1.43.55,2.28,2.28,0,0,1,.47,1.57v3h-.77v-.86a1.9,1.9,0,0,1-.71.75,2,2,0,0,1-1,.26,1.87,1.87,0,0,1-1.2-.4,1.27,1.27,0,0,1-.5-1.07A1.44,1.44,0,0,1,51.3,51.87Zm2.21,0a2.86,2.86,0,0,0-1.6.38,1,1,0,0,0-.4.79.77.77,0,0,0,.3.64,1.17,1.17,0,0,0,.74.23,1.53,1.53,0,0,0,1.12-.43,1.43,1.43,0,0,0,.43-1.05v-.58Z"/><path class="cls-3" d="M56.89,50.44a2.11,2.11,0,0,1,.73-.87,1.78,1.78,0,0,1,1-.3,1.55,1.55,0,0,1,1.28.52A2,2,0,0,1,60.31,51v3.3h-.79V51.22a1.61,1.61,0,0,0-.25-1,1,1,0,0,0-.82-.33,1.39,1.39,0,0,0-1.14.53,2.18,2.18,0,0,0-.42,1.4v2.51h-.78V49.42h.78Z"/><path class="cls-3" d="M61.91,50a1.93,1.93,0,0,1,2.6-.44,1.91,1.91,0,0,1,.72.82V47.34H66v7h-.79v-1a2,2,0,0,1-.72.82,1.84,1.84,0,0,1-1.06.32,1.86,1.86,0,0,1-1.54-.76,2.93,2.93,0,0,1-.59-1.83v0A2.93,2.93,0,0,1,61.91,50Zm2.88.42a1.35,1.35,0,0,0-1.09-.58,1.41,1.41,0,0,0-1.13.52,2.24,2.24,0,0,0-.44,1.47v0a2.24,2.24,0,0,0,.44,1.47,1.44,1.44,0,0,0,1.13.52,1.35,1.35,0,0,0,1.09-.58,2.15,2.15,0,0,0,.46-1.41v0A2.15,2.15,0,0,0,64.79,50.45Z"/><path class="cls-3" d="M70.24,53.59a1.48,1.48,0,0,0,1,.3,1.72,1.72,0,0,0,1-.23.65.65,0,0,0,.32-.56.61.61,0,0,0-.22-.48,1.87,1.87,0,0,0-.79-.32l-.65-.14a2.17,2.17,0,0,1-1.15-.54,1.29,1.29,0,0,1,.15-1.92,2.39,2.39,0,0,1,2.66-.05,1.82,1.82,0,0,1,.69,1l-.69.18a1.26,1.26,0,0,0-.47-.71,1.36,1.36,0,0,0-.81-.25,1.42,1.42,0,0,0-.82.21.66.66,0,0,0-.3.54.7.7,0,0,0,.19.49,1.31,1.31,0,0,0,.69.31l.65.14a2.84,2.84,0,0,1,1.27.55,1.19,1.19,0,0,1,.39.92,1.27,1.27,0,0,1-.56,1,2.47,2.47,0,0,1-1.54.43,2.37,2.37,0,0,1-1.41-.41A1.89,1.89,0,0,1,69,52.93l.7-.18A1.51,1.51,0,0,0,70.24,53.59Z"/><path class="cls-3" d="M74.69,50a2.18,2.18,0,0,1,1.71-.72,2.09,2.09,0,0,1,1.35.44,2,2,0,0,1,.69,1.19l-.72.16a1.69,1.69,0,0,0-.49-.9,1.22,1.22,0,0,0-.83-.29,1.36,1.36,0,0,0-1.13.55,2.39,2.39,0,0,0-.41,1.44v0a2.35,2.35,0,0,0,.41,1.43,1.34,1.34,0,0,0,1.13.56,1.32,1.32,0,0,0,.83-.28,1.84,1.84,0,0,0,.53-1l.72.16a2.35,2.35,0,0,1-.74,1.28,2.06,2.06,0,0,1-1.34.44,2.22,2.22,0,0,1-1.69-.7,2.62,2.62,0,0,1-.66-1.89v0A2.72,2.72,0,0,1,74.69,50Z"/><path class="cls-3" d="M79.68,51.87a4,4,0,0,1,2.19-.55l.61,0v-.17a1.41,1.41,0,0,0-.27-.94,1,1,0,0,0-.84-.31,1.21,1.21,0,0,0-.74.24,1.46,1.46,0,0,0-.49.69l-.7-.21a2,2,0,0,1,.68-.94,2,2,0,0,1,1.25-.38,1.76,1.76,0,0,1,1.43.55,2.28,2.28,0,0,1,.47,1.57v3H82.5v-.86a1.9,1.9,0,0,1-.71.75,2,2,0,0,1-1,.26,1.87,1.87,0,0,1-1.2-.4A1.28,1.28,0,0,1,79.08,53,1.46,1.46,0,0,1,79.68,51.87Zm2.21,0a2.86,2.86,0,0,0-1.6.38,1,1,0,0,0-.41.79.77.77,0,0,0,.3.64,1.22,1.22,0,0,0,.75.23,1.53,1.53,0,0,0,1.12-.43,1.43,1.43,0,0,0,.43-1.05v-.58Z"/><path class="cls-3" d="M85.32,54.34h-.79v-7h.79Z"/><path class="cls-3" d="M86.89,51.87a4,4,0,0,1,2.19-.55l.61,0v-.17a1.41,1.41,0,0,0-.27-.94,1,1,0,0,0-.84-.31,1.21,1.21,0,0,0-.74.24,1.46,1.46,0,0,0-.49.69l-.7-.21a2,2,0,0,1,.68-.94,2,2,0,0,1,1.25-.38,1.76,1.76,0,0,1,1.43.55,2.28,2.28,0,0,1,.47,1.57v3h-.77v-.86a1.9,1.9,0,0,1-.71.75,2,2,0,0,1-1,.26,1.87,1.87,0,0,1-1.2-.4A1.28,1.28,0,0,1,86.29,53,1.46,1.46,0,0,1,86.89,51.87Zm2.21,0a2.86,2.86,0,0,0-1.6.38,1,1,0,0,0-.41.79.77.77,0,0,0,.3.64,1.22,1.22,0,0,0,.75.23,1.53,1.53,0,0,0,1.12-.43,1.43,1.43,0,0,0,.43-1.05v-.58Z"/><path class="cls-3" d="M91.69,54.34v-7h.79v3.07a2,2,0,0,1,.72-.82,1.89,1.89,0,0,1,1.06-.32,1.86,1.86,0,0,1,1.55.76,2.92,2.92,0,0,1,.58,1.83v0a2.92,2.92,0,0,1-.58,1.83,1.94,1.94,0,0,1-2.61.44,2.11,2.11,0,0,1-.72-.82v1Zm3.45-4A1.4,1.4,0,0,0,94,49.87a1.35,1.35,0,0,0-1.08.58,2.16,2.16,0,0,0-.47,1.41v0a2.16,2.16,0,0,0,.47,1.41,1.35,1.35,0,0,0,1.08.58,1.43,1.43,0,0,0,1.13-.52,2.19,2.19,0,0,0,.44-1.47v0A2.19,2.19,0,0,0,95.14,50.39Z"/><path class="cls-3" d="M98.29,54.34H97.5v-7h.79Z"/><path class="cls-3" d="M100,50a2.14,2.14,0,0,1,1.72-.73,2,2,0,0,1,1.64.68,2.9,2.9,0,0,1,.56,1.89V52h-3.73a2.23,2.23,0,0,0,.45,1.4,1.43,1.43,0,0,0,1.15.51,1.29,1.29,0,0,0,.75-.24,2,2,0,0,0,.65-.8l.68.27a2,2,0,0,1-.9,1,2.41,2.41,0,0,1-1.19.33,2.25,2.25,0,0,1-1.75-.71,2.7,2.7,0,0,1-.65-1.88v0A2.8,2.8,0,0,1,100,50Zm2.7.26a1.24,1.24,0,0,0-1-.39,1.33,1.33,0,0,0-1,.42,2.11,2.11,0,0,0-.5,1.12h2.88A1.92,1.92,0,0,0,102.72,50.26Z"/><path class="cls-3" d="M108.34,53.41a2.29,2.29,0,0,0,1.35.39,2.07,2.07,0,0,0,1.18-.33,1,1,0,0,0,.48-.89,1.1,1.1,0,0,0-.32-.81,2.74,2.74,0,0,0-1.15-.53L109.1,51a2.89,2.89,0,0,1-1.4-.74,1.78,1.78,0,0,1,.18-2.54,2.69,2.69,0,0,1,1.83-.56,2.46,2.46,0,0,1,1.59.5,2.28,2.28,0,0,1,.81,1.41l-.75.17a1.91,1.91,0,0,0-.57-1,1.56,1.56,0,0,0-1.08-.37,1.94,1.94,0,0,0-1.21.32,1,1,0,0,0-.41.82,1.09,1.09,0,0,0,.27.76,2,2,0,0,0,.94.47l.79.21a3.42,3.42,0,0,1,1.65.83,1.75,1.75,0,0,1,.49,1.24,1.7,1.7,0,0,1-.74,1.44,3,3,0,0,1-1.8.54,3.1,3.1,0,0,1-1.92-.56,2.52,2.52,0,0,1-.91-1.64l.77-.18A1.92,1.92,0,0,0,108.34,53.41Z"/><path class="cls-3" d="M113.87,48.18a2.69,2.69,0,0,1,2.2-1,2.72,2.72,0,0,1,1.67.52,2.65,2.65,0,0,1,.94,1.65l-.75.17a2.2,2.2,0,0,0-.64-1.23,1.72,1.72,0,0,0-1.22-.44,1.88,1.88,0,0,0-1.55.76,3.49,3.49,0,0,0-.6,2.21v0a3.4,3.4,0,0,0,.62,2.24,1.92,1.92,0,0,0,1.52.73,1.84,1.84,0,0,0,1.24-.45,2.3,2.3,0,0,0,.7-1.29l.75.17a2.78,2.78,0,0,1-1,1.67,2.72,2.72,0,0,1-1.72.57,2.77,2.77,0,0,1-2.13-.93,3.87,3.87,0,0,1-.86-2.71v0A4.11,4.11,0,0,1,113.87,48.18Z"/><path class="cls-3" d="M120.92,53.41a2.29,2.29,0,0,0,1.35.39,2.07,2.07,0,0,0,1.18-.33,1,1,0,0,0,.48-.89,1.1,1.1,0,0,0-.32-.81,2.74,2.74,0,0,0-1.15-.53l-.78-.21a2.89,2.89,0,0,1-1.4-.74,1.78,1.78,0,0,1,.18-2.54,2.69,2.69,0,0,1,1.83-.56,2.46,2.46,0,0,1,1.59.5,2.28,2.28,0,0,1,.81,1.41l-.75.17a1.91,1.91,0,0,0-.57-1,1.56,1.56,0,0,0-1.08-.37,1.94,1.94,0,0,0-1.21.32,1,1,0,0,0-.41.82,1.09,1.09,0,0,0,.27.76,2,2,0,0,0,.94.47l.79.21a3.42,3.42,0,0,1,1.65.83,1.75,1.75,0,0,1,.49,1.24,1.7,1.7,0,0,1-.74,1.44,3,3,0,0,1-1.8.54,3.1,3.1,0,0,1-1.92-.56,2.52,2.52,0,0,1-.91-1.64l.77-.18A1.92,1.92,0,0,0,120.92,53.41Z"/><path class="cls-3" d="M127,53.41a2.29,2.29,0,0,0,1.35.39,2.07,2.07,0,0,0,1.18-.33,1,1,0,0,0,.48-.89,1.1,1.1,0,0,0-.32-.81,2.74,2.74,0,0,0-1.15-.53l-.78-.21a2.89,2.89,0,0,1-1.4-.74,1.78,1.78,0,0,1,.18-2.54,2.69,2.69,0,0,1,1.83-.56,2.46,2.46,0,0,1,1.59.5,2.32,2.32,0,0,1,.81,1.41l-.75.17a1.91,1.91,0,0,0-.57-1,1.56,1.56,0,0,0-1.08-.37,1.94,1.94,0,0,0-1.21.32,1,1,0,0,0-.41.82,1.09,1.09,0,0,0,.27.76,2,2,0,0,0,.94.47l.79.21a3.42,3.42,0,0,1,1.65.83,1.75,1.75,0,0,1,.49,1.24,1.7,1.7,0,0,1-.74,1.44,3,3,0,0,1-1.8.54,3.1,3.1,0,0,1-1.92-.56,2.48,2.48,0,0,1-.91-1.64l.77-.18A1.92,1.92,0,0,0,127,53.41Z"/><path class="cls-3" d="M133.65,49.42h.78v-.6a1.67,1.67,0,0,1,.37-1.15,1.56,1.56,0,0,1,1.21-.41l.31,0,.28,0v.59l-.28,0h-.25a.91.91,0,0,0-.64.19.84.84,0,0,0-.21.64v.73h1.38V50h-1.38v4.33h-.79V50h-.78Z"/><path class="cls-3" d="M138.22,50.6a2,2,0,0,1,.69-.93,1.73,1.73,0,0,1,1-.31h.1l.08,0v.73h-.28a1.55,1.55,0,0,0-1.17.46,1.89,1.89,0,0,0-.46,1.4v2.39h-.79V49.42h.79Z"/><path class="cls-3" d="M141,51.87a4,4,0,0,1,2.19-.55l.61,0v-.17a1.41,1.41,0,0,0-.27-.94,1,1,0,0,0-.84-.31,1.21,1.21,0,0,0-.74.24,1.46,1.46,0,0,0-.49.69l-.7-.21a2,2,0,0,1,.68-.94,2,2,0,0,1,1.25-.38,1.76,1.76,0,0,1,1.43.55,2.28,2.28,0,0,1,.47,1.57v3h-.77v-.86a1.9,1.9,0,0,1-.71.75,2,2,0,0,1-1,.26,1.87,1.87,0,0,1-1.2-.4,1.28,1.28,0,0,1-.51-1.07A1.46,1.46,0,0,1,141,51.87Zm2.21,0a2.86,2.86,0,0,0-1.6.38,1,1,0,0,0-.41.79.77.77,0,0,0,.3.64,1.22,1.22,0,0,0,.75.23,1.53,1.53,0,0,0,1.12-.43,1.43,1.43,0,0,0,.43-1.05v-.58Z"/><path class="cls-3" d="M146.6,50.43a2,2,0,0,1,.72-.87,1.63,1.63,0,0,1,1.94.06,1.66,1.66,0,0,1,.53.89,2.07,2.07,0,0,1,.72-.91,1.56,1.56,0,0,1,.94-.33,1.5,1.5,0,0,1,1.27.53,2,2,0,0,1,.4,1.24v3.3h-.79V51.22a1.69,1.69,0,0,0-.24-1,1,1,0,0,0-.84-.34,1.17,1.17,0,0,0-1,.55,2.24,2.24,0,0,0-.41,1.38v2.51h-.79V51.22a1.69,1.69,0,0,0-.24-1,1,1,0,0,0-.84-.34,1.19,1.19,0,0,0-1,.55,2.24,2.24,0,0,0-.41,1.38v2.51h-.79V49.42h.79Z"/><path class="cls-3" d="M154.75,50a2.14,2.14,0,0,1,1.72-.73,2,2,0,0,1,1.64.68,2.9,2.9,0,0,1,.56,1.89V52h-3.73a2.23,2.23,0,0,0,.45,1.4,1.43,1.43,0,0,0,1.15.51,1.29,1.29,0,0,0,.75-.24,2,2,0,0,0,.65-.8l.68.27a2.07,2.07,0,0,1-.9,1,2.41,2.41,0,0,1-1.19.33,2.25,2.25,0,0,1-1.75-.71,2.7,2.7,0,0,1-.65-1.88v0A2.8,2.8,0,0,1,154.75,50Zm2.7.26a1.24,1.24,0,0,0-1-.39,1.33,1.33,0,0,0-1,.42,2.11,2.11,0,0,0-.5,1.12h2.88A1.92,1.92,0,0,0,157.45,50.26Z"/><path class="cls-3" d="M161.09,53.62l1.18-4.2h1l1.18,4.22,1.05-4.22h.71l-1.29,4.92h-1l-1.18-4.22-1.19,4.22h-1l-1.29-4.92h.79Z"/><path class="cls-3" d="M167.39,50a2.49,2.49,0,0,1,3.48,0,2.68,2.68,0,0,1,.64,1.88v0a2.7,2.7,0,0,1-.64,1.88,2.49,2.49,0,0,1-3.48,0,2.74,2.74,0,0,1-.64-1.88v0A2.73,2.73,0,0,1,167.39,50Zm2.87.41a1.49,1.49,0,0,0-2.26,0,2.24,2.24,0,0,0-.44,1.47v0a2.24,2.24,0,0,0,.44,1.47,1.44,1.44,0,0,0,1.13.52,1.43,1.43,0,0,0,1.13-.52,2.19,2.19,0,0,0,.44-1.47v0A2.19,2.19,0,0,0,170.26,50.39Z"/><path class="cls-3" d="M173.36,50.6a2,2,0,0,1,.69-.93,1.73,1.73,0,0,1,1-.31h.1l.08,0v.73H175a1.55,1.55,0,0,0-1.17.46,1.93,1.93,0,0,0-.46,1.4v2.39h-.79V49.42h.79Z"/><path class="cls-3" d="M177,52l2.31-2.58h.94l-1.74,1.89,2,3h-.93L178,51.85l-1,1.07v1.42h-.79v-7H177Z"/><path class="cls-3" d="M182.48,54.34h-1v-1.1h1Z"/></g></g></svg>